<?xml version="1.0" encoding="utf-8"?>
<!-- Generator: Adobe Illustrator 27.2.0, SVG Export Plug-In . SVG Version: 6.00 Build 0)  -->
<svg version="1.1" id="Layer_1" xmlns="http://www.w3.org/2000/svg" xmlns:xlink="http://www.w3.org/1999/xlink" x="0px" y="0px"
	 viewBox="0 0 512 512" style="enable-background:new 0 0 512 512;" xml:space="preserve">
<style type="text/css">
	.st0{fill:#CC2277;}
	.st1{fill:#141738;}
</style>
<polygon class="st0" points="478.6,167 478.6,167 478.6,133.6 478.6,133.6 445.2,133.6 445.2,133.6 445.2,100.2 411.8,100.2 
	411.8,66.8 411.8,66.8 345,66.8 345,33.4 345,33.4 267.1,33.4 267.1,0 233.7,0 233.7,33.4 167,33.4 167,33.4 167,66.8 100.2,66.8 
	100.2,66.8 100.2,100.2 66.8,100.2 66.8,133.6 66.8,133.6 66.8,133.6 33.4,133.6 33.4,133.6 33.4,167 33.4,167 0,167 0,256 0,256 
	0,289.4 33.4,289.4 33.4,256 33.4,256 33.4,256 111.3,256 111.3,289.4 144.7,289.4 144.7,256 367.3,256 367.3,289.4 400.7,289.4 
	400.7,256 478.6,256 478.6,289.4 512,289.4 512,256 512,256 512,167 "/>
<polygon class="st1" points="378.4,189.2 378.4,144.7 345,144.7 345,100.2 311.7,100.2 311.7,33.4 200.3,33.4 200.3,100.2 
	167,100.2 167,144.7 133.6,144.7 133.6,189.2 111.3,189.2 111.3,244.9 111.3,256 111.3,289.4 144.7,289.4 144.7,256 167,256 
	200.3,256 311.7,256 345,256 367.3,256 367.3,289.4 400.7,289.4 400.7,256 400.7,233.7 400.7,189.2 "/>
<rect x="333.9" y="445.2" width="33.4" height="33.4"/>
<rect x="267.1" y="478.6" width="66.8" height="33.4"/>
<rect x="233.7" y="256" width="33.4" height="222.6"/>
<rect x="66.8" y="100.2" width="33.4" height="33.4"/>
<rect x="100.2" y="66.8" width="66.8" height="33.4"/>
<rect x="345" y="66.8" width="66.8" height="33.4"/>
<rect x="33.4" y="133.6" width="33.4" height="33.4"/>
<polygon points="345,33.4 267.1,33.4 267.1,0 233.7,0 233.7,33.4 167,33.4 167,66.8 345,66.8 "/>
<polygon points="33.4,222.6 33.4,167 0,167 0,256 0,256 0,289.4 33.4,289.4 33.4,256 33.4,256 33.4,256 111.3,256 111.3,222.6 "/>
<rect x="144.7" y="222.6" width="89" height="33.4"/>
<rect x="267.1" y="222.6" width="100.2" height="33.4"/>
<rect x="411.8" y="100.2" width="33.4" height="33.4"/>
<rect x="445.2" y="133.6" width="33.4" height="33.4"/>
<polygon points="512,167 478.6,167 478.6,222.6 400.7,222.6 400.7,256 478.6,256 478.6,289.4 512,289.4 512,256 512,256 "/>
<rect x="111.3" y="256" width="33.4" height="33.4"/>
<rect x="367.3" y="256" width="33.4" height="33.4"/>
</svg>
